# xmcd
#
# Track frame offsets: 
#        150
#        12135
#        26715
#        41977
#        59022
#        74350
#        89547
#        103410
#        118302
#        136410
#
# Disc length: 2008 seconds
#
# Revision: 1
# Processed by: cddbd v1.5.2PL0 Copyright (c) Steve Scherf et al.
# Submitted via: ExactAudioCopyFreeDBPlugin 1.0
#
DISCID=9a07d60a
DTITLE=John Schneider - Greatest Hits
DYEAR=1987
DGENRE=Country
TTITLE0=I've Been Around Enough To Know
TTITLE1=Country Girls
TTITLE2=It's a Short Walk From Heaven To Hell
TTITLE3=I'm Gonna Leave You Tomorrow
TTITLE4=What's a Memory Like You (Doing in a Love Like This)
TTITLE5=You're the Last Thing I Needed Tonight
TTITLE6=At the Sound of the Tone
TTITLE7=Take the Long Way Home
TTITLE8=Love, You Ain't Seen the Last of Me
TTITLE9=If It Was Anyone But You
EXTD=
EXTT0=
EXTT1=
EXTT2=
EXTT3=
EXTT4=
EXTT5=
EXTT6=
EXTT7=
EXTT8=
EXTT9=
PLAYORDER=
